<svg xmlns:xlink="http://www.w3.org/1999/xlink" xmlns="http://www.w3.org/2000/svg" width="24" height="24" viewBox="0 0 32 32" style="fill:var(--core-ui-color-blue80)" aria-hidden="true" focusable="false" data-testid="core-ui-icon-pie-chart"><path d="M16.206 4.9h-.825C8.571 4.9 3 10.3 3 17c0 6.7 5.571 12 12.381 12 6.81 0 12.38-5.4 12.38-12v-.8H16.207V4.9Zm9.905 12.9c-.413 5.4-5.055 9.6-10.73 9.6-5.881 0-10.73-4.7-10.73-10.4 0-5.5 4.436-10 9.905-10.4v11.2H26.11Z" fill="#1242AF"></path>
    <path d="M18.27 3h-.826v11.2H29v-.8C29 7.7 24.15 3 18.27 3Z" fill="#1242AF"></path></svg>