<svg xmlns:xlink="http://www.w3.org/1999/xlink" xmlns="http://www.w3.org/2000/svg" width="24" height="24" viewBox="0 0 32 32" style="fill:var(--core-ui-color-blue80)" aria-hidden="true" focusable="false" data-testid="core-ui-icon-documents"><path d="M23.265 6.362c0-1.706-1.394-3.112-3.085-3.112H5.75v19.276c0 1.706 1.393 3.112 3.085 3.112h14.43V6.362Zm-1.692 17.77H8.835c-.896 0-1.493-.703-1.493-1.506V4.856H20.08c.896 0 1.493.703 1.493 1.506v17.77Z" fill="#1242AF"></path>
    <path d="M19.582 19.815h-2.686v1.606h2.686v-1.606Zm-4.279 0h-5.97v1.606h5.97v-1.606Zm4.279-3.213h-2.686v1.607h2.686v-1.607Zm-4.279 0h-5.97v1.607h5.97v-1.607Zm0-3.312h-5.97v1.606h5.97v-1.607Zm4.279 0h-2.686v1.606h2.686v-1.607Zm0-5.723H9.332v3.313h10.25V7.567Z" fill="#1242AF"></path>
    <path d="M24.658 7.165v19.979h-14.23v1.606H26.25V7.165h-1.592Z" fill="#1242AF"></path></svg>